<?xml version="1.0" encoding="UTF-8" standalone="no"?>
<svg
   xmlns:dc="http://purl.org/dc/elements/1.1/"
   xmlns:cc="http://creativecommons.org/ns#"
   xmlns:rdf="http://www.w3.org/1999/02/22-rdf-syntax-ns#"
   xmlns:svg="http://www.w3.org/2000/svg"
   xmlns="http://www.w3.org/2000/svg"
   xmlns:sodipodi="http://sodipodi.sourceforge.net/DTD/sodipodi-0.dtd"
   xmlns:inkscape="http://www.inkscape.org/namespaces/inkscape"
   id="svg2"
   viewBox="0 0 355.74 431.58"
   version="1.0"
   inkscape:version="0.47 r22583"
   width="100%"
   height="100%"
   sodipodi:docname="nuolet-openclipart-org.svg">
  <sodipodi:namedview
     pagecolor="#ffffff"
     bordercolor="#666666"
     borderopacity="1"
     objecttolerance="10"
     gridtolerance="10"
     guidetolerance="10"
     inkscape:pageopacity="0"
     inkscape:pageshadow="2"
     inkscape:window-width="1088"
     inkscape:window-height="913"
     id="namedview68"
     showgrid="false"
     inkscape:zoom="2.1873118"
     inkscape:cx="116.13609"
     inkscape:cy="326.78761"
     inkscape:window-x="0"
     inkscape:window-y="0"
     inkscape:window-maximized="0"
     inkscape:current-layer="svg2" />
  <defs
     id="defs4">
    <inkscape:perspective
       sodipodi:type="inkscape:persp3d"
       inkscape:vp_x="0 : 215.79 : 1"
       inkscape:vp_y="0 : 1000 : 0"
       inkscape:vp_z="355.74 : 215.79 : 1"
       inkscape:persp3d-origin="177.87 : 143.86 : 1"
       id="perspective70" />
    <linearGradient
       id="linearGradient2526"
       x1="23.255"
       gradientUnits="userSpaceOnUse"
       x2="23.255"
       gradientTransform="matrix(0,1,-1,0,63.703,7.1282)"
       y1="16.125"
       y2="59.484">
      <stop
         id="stop1418"
         stop-color="#3ec549"
         stop-opacity=".50836"
         offset="0" />
      <stop
         id="stop1420"
         stop-color="#4fe756"
         stop-opacity=".11706"
         offset="1" />
    </linearGradient>
    <linearGradient
       id="linearGradient2524"
       x1="28.414"
       gradientUnits="userSpaceOnUse"
       x2="20.353"
       gradientTransform="matrix(0,1,-1,0,63.641,7.6164)"
       y1="16.25"
       y2="62.974">
      <stop
         id="stop1408"
         stop-color="#56d760"
         stop-opacity=".58863"
         offset="0" />
      <stop
         id="stop1410"
         stop-color="#18b01f"
         stop-opacity=".39216"
         offset="1" />
    </linearGradient>
    <linearGradient
       id="linearGradient2522"
       x1="32.382"
       gradientUnits="userSpaceOnUse"
       x2="16.504"
       gradientTransform="matrix(0,1,-1,0,63.627,7.4347)"
       y1="15.406"
       y2="62.81">
      <stop
         id="stop1354"
         stop-color="#179907"
         offset="0" />
      <stop
         id="stop1356"
         stop-color="#0f7402"
         offset="1" />
    </linearGradient>
    <linearGradient
       id="linearGradient2520"
       x1="5.068"
       gradientUnits="userSpaceOnUse"
       x2="44.702"
       gradientTransform="matrix(0,1,-1,0,63.627,7.4347)"
       y1="34.687"
       y2="42.613">
      <stop
         id="stop2129"
         stop-color="#1b611f"
         offset="0" />
      <stop
         id="stop2131"
         stop-color="#103f14"
         offset="1" />
    </linearGradient>
    <inkscape:perspective
       id="perspective2937"
       inkscape:persp3d-origin="0.5 : 0.33333333 : 1"
       inkscape:vp_z="1 : 0.5 : 1"
       inkscape:vp_y="0 : 1000 : 0"
       inkscape:vp_x="0 : 0.5 : 1"
       sodipodi:type="inkscape:persp3d" />
    <inkscape:perspective
       id="perspective2986"
       inkscape:persp3d-origin="0.5 : 0.33333333 : 1"
       inkscape:vp_z="1 : 0.5 : 1"
       inkscape:vp_y="0 : 1000 : 0"
       inkscape:vp_x="0 : 0.5 : 1"
       sodipodi:type="inkscape:persp3d" />
    <inkscape:perspective
       id="perspective3802"
       inkscape:persp3d-origin="0.5 : 0.33333333 : 1"
       inkscape:vp_z="1 : 0.5 : 1"
       inkscape:vp_y="0 : 1000 : 0"
       inkscape:vp_x="0 : 0.5 : 1"
       sodipodi:type="inkscape:persp3d" />
    <inkscape:perspective
       id="perspective3632"
       inkscape:persp3d-origin="0.5 : 0.33333333 : 1"
       inkscape:vp_z="1 : 0.5 : 1"
       inkscape:vp_y="0 : 1000 : 0"
       inkscape:vp_x="0 : 0.5 : 1"
       sodipodi:type="inkscape:persp3d" />
  </defs>
  <g
     transform="matrix(13.994,0,0,13.994,1265.147,278.708)"
     id="g2720">
    <g
       transform="translate(3.2246e-8,-12)"
       id="g2514">
      <path
         style="fill:url(#linearGradient2520)"
         d="M 32.471,18.591 H 18.408 c -0.049,-1 0,-5 0,-5 -0.009,-0.447 -0.117,-0.83 -0.531,-1 -0.414,-0.17 -0.867,-0.093 -1.188,0.219 l -16,16 c -0.42138,0.435 -0.42138,1.127 4.3e-4,1.562 l 16,16 c 0.321,0.312 0.774,0.42 1.188,0.25 0.414,-0.169 0.522,-0.584 0.531,-1.031 v -5 h 7.938 c 2.281,-0.156 3.281,0.844 3.281,3.844 v 6.062 c 0,0 0,1 1,1 6,0 12,-0.062 18,-0.062 1,0 1,-1 1,-1 v -12.5 c 0,-14.5 -8,-19.5 -17.156,-19.344 z"
         id="path1388" />
      <path
         style="fill:url(#linearGradient2522)"
         d="m 48.221,37.872 c 0,-7.003 -1.917,-11.445 -4.75,-14.187 -2.834,-2.743 -6.705,-3.887 -11.032,-3.813 H 18.346 c -0.719,0.001 -1.311,-0.563 -1.344,-1.281 -0.05,-1.031 -0.012,-3.439 0,-4.313 l -15.25,15.25 15.25,15.282 v -4.282 c 0,-0.742 0.602,-1.343 1.344,-1.343 h 7.843 c 0.032,-0.002 0.062,10e-4 0.094,0 1.318,-0.073 2.637,0.211 3.5,1.187 0.884,1 1.125,2.351 1.125,4 v 5.719 c 5.762,-0.002 11.533,-0.06 17.313,-0.063 V 37.872 z"
         id="path2147" />
      <path
         style="fill:url(#linearGradient2524)"
         d="m 47.391,38.054 c 0,-6.849 -1.857,-11.036 -4.5,-13.594 -2.642,-2.557 -6.268,-3.633 -10.438,-3.562 H 18.359 c -1.161,0.001 -2.133,-0.934 -2.187,-2.094 -0.029,-0.594 -0.007,-1.421 0,-2.313 L 2.953,29.71 16.172,42.96 v -2.25 c 0,-1.198 0.989,-2.187 2.187,-2.187 h 7.782 c 0.068,-0.005 0.045,-0.001 0.062,0 0.018,0 0.096,-0.002 0.063,0 1.469,-0.082 3.064,0.233 4.156,1.468 1.083,1.226 1.344,2.831 1.344,4.563 v 4.875 c 5.197,-0.007 10.405,-0.056 15.625,-0.063 V 38.054 z"
         id="path1412" />
      <path
         style="fill:url(#linearGradient2526)"
         d="M 47.365,39.79 C 47.631,33.35 46.772,28.109 43.013,24.544 40.331,22 37.509,20.901 32.391,20.972 H 18.297 c -1.13,10e-4 -2.073,-0.903 -2.125,-2.031 -0.031,-0.624 -0.012,-1.545 0,-2.438 l -13.214,13.214 9.793,9.794 c 1.932,-7.883 9.08,-13.39 17.952,-13.39 7.152,0 12.298,2.105 16.662,13.669 z"
         id="path4351" />
    </g>
  </g>
  <g
     id="g2857"
     inkscape:export-filename="/home/jyke/QtCreator/htyo-julkinen-src/pics/left.png"
     inkscape:export-xdpi="78.389999"
     inkscape:export-ydpi="78.389999">
    <rect
       ry="0.33469144"
       rx="0.19404286"
       y="36.803165"
       x="32.802822"
       height="33.260006"
       width="32.917118"
       id="rect3006"
       style="fill:none;stroke:#000000;stroke-width:4;stroke-linecap:round;stroke-miterlimit:4;stroke-opacity:0;stroke-dasharray:none;stroke-dashoffset:0" />
    <g
       inkscape:export-ydpi="88.136719"
       inkscape:export-xdpi="88.136719"
       inkscape:export-filename="/tmp/left.png"
       transform="matrix(0.32318627,-0.29595736,0.35877348,0.26660097,29.477868,45.423892)"
       id="g2925">
      <path
         style="fill:none;stroke:#000000;stroke-width:7.77869987"
         d="m 3.889,88.438 c 0,0 63.378,-37.33 6.962,-80.234"
         id="path3942" />
      <path
         style="fill:none;stroke:#000000;stroke-width:7.77869987"
         d="M 39.937,20.048 C 39.047,19.101 16.846,1.346 12.002,4.199 7.157,7.052 12.466,32.963 12.466,32.963"
         id="path3944" />
    </g>
  </g>
  <metadata
     id="metadata66">
    <rdf:RDF>
      <cc:Work>
        <dc:format>image/svg+xml</dc:format>
        <dc:type
           rdf:resource="http://purl.org/dc/dcmitype/StillImage" />
        <cc:license
           rdf:resource="http://creativecommons.org/licenses/publicdomain/" />
        <dc:publisher>
          <cc:Agent
             rdf:about="http://openclipart.org/">
            <dc:title>Openclipart</dc:title>
          </cc:Agent>
        </dc:publisher>
        <dc:title></dc:title>
        <dc:date>2008-11-18T17:14:39</dc:date>
        <dc:description>A set of arrow.Very basic, useful for beginners.</dc:description>
        <dc:source>http://openclipart.org/detail/20245/set-of-simple-arrow-by-rg1024-20245</dc:source>
        <dc:creator>
          <cc:Agent>
            <dc:title>rg1024</dc:title>
          </cc:Agent>
        </dc:creator>
        <dc:subject>
          <rdf:Bag>
            <rdf:li>arrow</rdf:li>
            <rdf:li>arrows</rdf:li>
            <rdf:li>clip art</rdf:li>
            <rdf:li>clipart</rdf:li>
            <rdf:li>direction</rdf:li>
            <rdf:li>image</rdf:li>
            <rdf:li>media</rdf:li>
            <rdf:li>png</rdf:li>
            <rdf:li>public domain</rdf:li>
            <rdf:li>svg</rdf:li>
          </rdf:Bag>
        </dc:subject>
      </cc:Work>
      <cc:License
         rdf:about="http://creativecommons.org/licenses/publicdomain/">
        <cc:permits
           rdf:resource="http://creativecommons.org/ns#Reproduction" />
        <cc:permits
           rdf:resource="http://creativecommons.org/ns#Distribution" />
        <cc:permits
           rdf:resource="http://creativecommons.org/ns#DerivativeWorks" />
      </cc:License>
    </rdf:RDF>
  </metadata>
</svg>
